<svg width="1080" height="300" viewBox="0 0 1080 300" fill="none" xmlns="http://www.w3.org/2000/svg">
  <defs>
    <linearGradient id="g" x1="120" y1="252" x2="286" y2="78" gradientUnits="userSpaceOnUse">
      <stop offset="0" stop-color="#FF6A2A"/>
      <stop offset="1" stop-color="#5E76E8"/>
    </linearGradient>
    <linearGradient id="t" x1="366" y1="238" x2="922" y2="142" gradientUnits="userSpaceOnUse">
      <stop offset="0" stop-color="#FF6A2A"/>
      <stop offset="1" stop-color="#5E76E8"/>
    </linearGradient>
  </defs>
  <rect width="1080" height="300" fill="#05080F"/>
  <path d="M120 32H181C219.108 32 250 62.8924 250 101C250 126.132 236.138 147.618 215.393 159.031C239.788 168.312 256 192.062 256 219.438V228H186.844C145.512 228 112 194.488 112 153.156V40C112 35.5817 115.582 32 120 32Z" fill="url(#g)"/>
  <path d="M159.15 87.3098C152.468 80.6274 139.103 67.2628 129.477 66.0098C138.111 71.9646 149.748 84.9962 156.272 91.8957C148.128 90.8843 131.07 89.2296 122.659 92.6836C132.013 92.9552 145.505 95.6569 154.844 98.342C146.752 101.5 131.662 108.111 123.842 115.665C132.459 111.638 147.482 108.241 156.614 106.406C153.58 114.415 148.177 131.09 148.685 141.4C152.111 133.266 158.318 121.561 162.631 114.172C168.619 121.709 178.53 134.995 186.33 144.586C182.354 132.346 177.796 118.299 174.989 109.665C183.019 112.529 199.579 117.872 211.694 118.271C201.73 111.74 187.365 104.73 179.635 101.171C188.17 98.3586 203.646 92.8628 212.085 86.3721C201.691 88.9894 185.094 90.3792 176.714 90.7466C181.943 84.2265 190.686 72.8007 195.009 63.6465C187.365 70.5851 176.714 80.6463 170.396 86.9763C168 79.8202 162.981 65.2258 156.703 53.7256C157.798 65.3904 158.534 79.3505 159.15 87.3098Z" fill="#02050C" fill-opacity="0.88"/>
  <text x="360" y="220" fill="url(#t)" font-family="Sarabun, Segoe UI, sans-serif" font-size="84" font-weight="700">Baanpoolvilla.com</text>
</svg>
