<svg width="256" height="256" viewBox="0 0 256 256" fill="none" xmlns="http://www.w3.org/2000/svg">
  <defs>
    <linearGradient id="g" x1="24" y1="232" x2="232" y2="24" gradientUnits="userSpaceOnUse">
      <stop offset="0" stop-color="#FF6A2A"/>
      <stop offset="1" stop-color="#5E76E8"/>
    </linearGradient>
  </defs>
  <rect width="256" height="256" rx="56" fill="#05080F"/>
  <path d="M72 36H148C182.137 36 210 63.8634 210 98C210 121.364 196.672 141.572 177.216 151.992C200.424 161.258 216 184.04 216 210.5V220H144.5C103.362 220 70 186.638 70 145.5V38C70 36.8954 70.8954 36 72 36Z" fill="url(#g)"/>
  <path d="M116.893 86.7325C109.962 79.8018 96.0868 65.9261 86.0908 64.6201C95.0748 70.7581 107.181 84.1997 113.963 91.3088C105.487 90.2554 87.7528 88.5432 79.0098 92.1455C88.7618 92.4288 102.837 95.2457 112.574 98.0464C104.134 101.34 88.4018 108.261 80.2617 116.159C89.2327 111.957 104.844 108.412 114.334 106.497C111.158 114.868 105.488 132.274 106.025 143.031C109.587 134.511 116.057 122.247 120.551 114.51C126.788 122.357 137.126 136.194 145.258 146.18C141.096 133.438 136.326 118.813 133.386 109.832C141.753 112.813 159.003 118.368 171.629 118.783C161.242 111.98 146.268 104.677 138.206 100.968C147.113 98.0375 163.271 92.3253 172.078 85.5791C161.228 88.2997 143.906 89.742 135.163 90.1238C140.62 83.3468 149.767 71.4758 154.291 61.9629C146.297 69.1738 135.16 79.6391 128.551 86.2197C126.044 78.7837 120.792 63.6129 114.229 51.6572C115.373 63.7836 116.143 78.2907 116.893 86.7325Z" fill="#02050C" fill-opacity="0.88"/>
</svg>
